<?xml version="1.0" standalone="no"?>
<!DOCTYPE svg PUBLIC "-//W3C//DTD SVG 20010904//EN"
 "http://www.w3.org/TR/2001/REC-SVG-20010904/DTD/svg10.dtd">
<svg version="1.0" xmlns="http://www.w3.org/2000/svg"
 width="225.000000pt" height="225.000000pt" viewBox="0 0 225.000000 225.000000"
 preserveAspectRatio="xMidYMid meet">

<g transform="translate(0.000000,225.000000) scale(0.100000,-0.100000)"
fill="#000000" stroke="none">
<path d="M1025 2169 c-196 -15 -395 -91 -559 -213 -174 -131 -308 -312 -381
-514 -49 -137 -60 -206 -60 -382 1 -148 4 -175 28 -265 25 -91 115 -294 150
-338 14 -17 21 -16 138 19 351 104 429 127 483 147 l59 21 -114 23 c-132 27
-156 37 -175 75 -22 42 -17 80 15 118 l29 35 261 3 262 3 -48 42 c-26 23 -70
62 -98 87 -27 26 -80 72 -117 104 l-68 58 -46 -16 c-42 -14 -49 -14 -92 2 -45
17 -50 17 -97 1 -47 -16 -52 -16 -95 0 -43 16 -49 16 -95 1 -48 -17 -52 -16
-103 2 l-53 20 -74 -56 c-41 -31 -77 -56 -80 -56 -3 0 -5 19 -5 43 l0 43 227
169 c124 93 234 169 243 169 9 1 83 -57 165 -129 81 -71 185 -163 231 -203
l84 -73 28 19 c15 11 114 86 221 166 107 80 201 146 210 146 9 0 142 -86 296
-190 251 -171 280 -194 280 -218 0 -51 -35 -40 -176 57 -129 89 -132 90 -160
76 -36 -19 -57 -19 -103 0 -32 14 -39 14 -66 0 -16 -8 -38 -15 -48 -15 -11 0
-36 7 -56 15 -32 14 -39 14 -66 0 -36 -19 -58 -19 -103 0 l-35 14 -82 -61 -82
-61 62 -57 c50 -44 62 -61 58 -78 -5 -19 -1 -22 36 -26 339 -40 460 -64 621
-123 92 -34 159 -68 218 -109 l48 -35 16 38 c8 21 27 83 41 138 23 87 26 121
26 260 1 211 -34 355 -125 524 -213 395 -619 614 -1074 580z m52 -312 l89 -54
73 49 c63 43 77 49 106 44 37 -7 50 -29 39 -70 -4 -16 -28 -40 -71 -68 -37
-24 -70 -45 -74 -49 -5 -3 -2 -43 6 -90 25 -141 22 -144 -41 -51 l-55 83 -61
-34 c-48 -27 -64 -42 -72 -68 -6 -19 -17 -34 -25 -34 -14 0 -101 118 -101 137
0 5 17 8 39 7 32 -3 48 4 95 39 31 24 56 45 56 49 0 3 -17 31 -38 62 -44 64
-65 101 -58 101 3 0 45 -24 93 -53z"/>
<path d="M438 1342 c-125 -93 -136 -118 -37 -86 47 16 55 16 101 1 44 -14 53
-14 95 0 42 15 50 14 97 0 28 -9 54 -13 58 -9 7 7 -170 173 -190 179 -4 1 -60
-37 -124 -85z"/>
<path d="M1421 1299 c-44 -33 -81 -64 -81 -70 0 -5 22 0 48 10 47 19 50 19 89
1 39 -17 42 -17 83 1 41 19 43 19 86 0 24 -11 44 -18 44 -16 0 3 -149 111
-176 128 -6 4 -48 -21 -93 -54z"/>
<path d="M677 823 c-13 -3 -17 -12 -15 -31 3 -26 7 -28 158 -59 193 -39 210
-46 210 -76 0 -49 -142 -102 -700 -262 -138 -40 -295 -87 -302 -91 -14 -9 -8
-44 8 -51 14 -5 103 17 254 63 25 7 160 48 300 89 365 109 435 137 501 202
l37 35 21 -21 c25 -25 26 -44 5 -80 -34 -58 -238 -179 -449 -267 -73 -30 -391
-144 -402 -144 -10 0 0 -49 11 -53 30 -12 450 144 620 230 79 40 187 111 229
151 49 47 67 81 67 128 0 54 -36 95 -119 134 -39 19 -71 37 -71 41 0 7 88 3
260 -12 179 -15 321 -56 436 -125 76 -45 109 -78 134 -129 43 -89 12 -174
-110 -298 -44 -45 -80 -87 -80 -93 0 -6 6 -17 14 -23 21 -18 41 -4 125 84 91
96 131 175 131 258 0 66 -15 101 -72 169 -35 43 -37 47 -14 39 121 -47 235
-136 275 -217 29 -58 32 -164 7 -233 -18 -49 -8 -74 27 -69 32 5 50 70 51 178
0 78 -4 104 -22 143 -26 57 -108 142 -183 190 -155 99 -426 168 -774 197 -119
10 -533 12 -568 3z"/>
<path d="M1202 738 c-29 -29 5 -62 56 -56 42 5 42 42 1 57 -40 14 -42 14 -57
-1z"/>
<path d="M1375 669 c-5 -16 2 -30 31 -60 43 -44 59 -48 74 -18 10 17 6 26 -28
60 -44 44 -67 49 -77 18z"/>
<path d="M1435 482 c-21 -15 -55 -72 -55 -92 0 -51 64 -22 90 41 19 44 -3 75
-35 51z"/>
<path d="M1247 289 c-26 -22 -37 -38 -35 -53 5 -33 39 -30 83 8 34 29 38 37
29 53 -17 28 -36 26 -77 -8z"/>
<path d="M1067 162 c-21 -23 -21 -36 -3 -51 23 -19 76 12 76 44 0 21 -5 25
-28 25 -16 0 -36 -8 -45 -18z"/>
</g>
</svg>
